<svg xmlns="http://www.w3.org/2000/svg" xmlns:xlink="http://www.w3.org/1999/xlink" width="500" zoomAndPan="magnify" viewBox="0 0 375 374.999991" height="500" preserveAspectRatio="xMidYMid meet" version="1.0"><defs><g/><clipPath id="d39f724959"><path d="M 301 129 L 315 129 L 315 183 L 301 183 Z M 301 129 " clip-rule="nonzero"/></clipPath><clipPath id="44593736ab"><path d="M 303.183594 129.09375 L 326.222656 132.238281 L 316.578125 202.835938 L 293.542969 199.6875 Z M 303.183594 129.09375 " clip-rule="nonzero"/></clipPath><clipPath id="607e5661a1"><path d="M 303.183594 129.09375 L 326.222656 132.238281 L 316.578125 202.835938 L 293.542969 199.6875 Z M 303.183594 129.09375 " clip-rule="nonzero"/></clipPath><clipPath id="ae0c276075"><path d="M 304 129 L 327 129 L 327 181 L 304 181 Z M 304 129 " clip-rule="nonzero"/></clipPath><clipPath id="0bcbdeabc1"><path d="M 303.183594 129.09375 L 326.222656 132.238281 L 316.578125 202.835938 L 293.542969 199.6875 Z M 303.183594 129.09375 " clip-rule="nonzero"/></clipPath><clipPath id="494c2fc476"><path d="M 303.183594 129.09375 L 326.222656 132.238281 L 316.578125 202.835938 L 293.542969 199.6875 Z M 303.183594 129.09375 " clip-rule="nonzero"/></clipPath><clipPath id="51bd4165d5"><path d="M 298 186 L 314 186 L 314 202 L 298 202 Z M 298 186 " clip-rule="nonzero"/></clipPath><clipPath id="08ff3840d6"><path d="M 303.183594 129.09375 L 326.222656 132.238281 L 316.578125 202.835938 L 293.542969 199.6875 Z M 303.183594 129.09375 " clip-rule="nonzero"/></clipPath><clipPath id="8fa48de9e0"><path d="M 303.183594 129.09375 L 326.222656 132.238281 L 316.578125 202.835938 L 293.542969 199.6875 Z M 303.183594 129.09375 " clip-rule="nonzero"/></clipPath><clipPath id="ef4c172ff4"><path d="M 300 186 L 314 186 L 314 201 L 300 201 Z M 300 186 " clip-rule="nonzero"/></clipPath><clipPath id="4811bd09e8"><path d="M 303.183594 129.09375 L 326.222656 132.238281 L 316.578125 202.835938 L 293.542969 199.6875 Z M 303.183594 129.09375 " clip-rule="nonzero"/></clipPath><clipPath id="5b4547286f"><path d="M 303.183594 129.09375 L 326.222656 132.238281 L 316.578125 202.835938 L 293.542969 199.6875 Z M 303.183594 129.09375 " clip-rule="nonzero"/></clipPath></defs><g fill="#ffffff" fill-opacity="1"><g transform="translate(74.683593, 187.686096)"><g><path d="M 9.515625 0.3125 C 7.015625 0.3125 5.007812 -0.472656 3.5 -2.046875 C 1.988281 -3.617188 1.234375 -5.773438 1.234375 -8.515625 L 1.234375 -24.359375 C 1.234375 -27.773438 1.910156 -30.347656 3.265625 -32.078125 C 4.628906 -33.816406 6.769531 -34.6875 9.6875 -34.6875 C 12.21875 -34.6875 14.253906 -33.988281 15.796875 -32.59375 C 17.347656 -31.207031 18.125 -29.207031 18.125 -26.59375 L 18.125 -20.6875 L 11.28125 -20.6875 L 11.28125 -25.765625 C 11.28125 -26.742188 11.160156 -27.421875 10.921875 -27.796875 C 10.679688 -28.171875 10.269531 -28.359375 9.6875 -28.359375 C 9.070312 -28.359375 8.648438 -28.144531 8.421875 -27.71875 C 8.191406 -27.289062 8.078125 -26.664062 8.078125 -25.84375 L 8.078125 -8.59375 C 8.078125 -7.6875 8.207031 -7.023438 8.46875 -6.609375 C 8.738281 -6.203125 9.144531 -6 9.6875 -6 C 10.75 -6 11.28125 -6.863281 11.28125 -8.59375 L 11.28125 -14.796875 L 18.203125 -14.796875 L 18.203125 -8.3125 C 18.203125 -2.5625 15.304688 0.3125 9.515625 0.3125 Z M 9.515625 0.3125 "/></g></g></g><g fill="#ffffff" fill-opacity="1"><g transform="translate(93.641714, 187.686096)"><g><path d="M 9.921875 0.3125 C 4.078125 0.3125 1.15625 -2.710938 1.15625 -8.765625 L 1.15625 -20.515625 C 1.15625 -23.296875 1.9375 -25.503906 3.5 -27.140625 C 5.0625 -28.773438 7.203125 -29.59375 9.921875 -29.59375 C 12.640625 -29.59375 14.78125 -28.773438 16.34375 -27.140625 C 17.90625 -25.503906 18.6875 -23.296875 18.6875 -20.515625 L 18.6875 -8.765625 C 18.6875 -2.710938 15.765625 0.3125 9.921875 0.3125 Z M 9.921875 -5.078125 C 10.484375 -5.078125 10.894531 -5.273438 11.15625 -5.671875 C 11.425781 -6.078125 11.5625 -6.625 11.5625 -7.3125 L 11.5625 -21.640625 C 11.5625 -23.347656 11.015625 -24.203125 9.921875 -24.203125 C 8.828125 -24.203125 8.28125 -23.347656 8.28125 -21.640625 L 8.28125 -7.3125 C 8.28125 -6.625 8.410156 -6.078125 8.671875 -5.671875 C 8.941406 -5.273438 9.359375 -5.078125 9.921875 -5.078125 Z M 9.921875 -5.078125 "/></g></g></g><g fill="#ffffff" fill-opacity="1"><g transform="translate(113.519734, 187.686096)"><g><path d="M 1.40625 -29.28125 L 8.40625 -29.28125 L 8.40625 -25.5625 C 8.695312 -26.757812 9.203125 -27.726562 9.921875 -28.46875 C 10.640625 -29.21875 11.597656 -29.59375 12.796875 -29.59375 C 14.773438 -29.59375 16.234375 -28.984375 17.171875 -27.765625 C 18.117188 -26.554688 18.59375 -24.832031 18.59375 -22.59375 L 18.59375 0 L 11.71875 0 L 11.71875 -21.875 C 11.71875 -22.519531 11.585938 -23.066406 11.328125 -23.515625 C 11.078125 -23.972656 10.6875 -24.203125 10.15625 -24.203125 C 9.4375 -24.203125 8.960938 -23.875 8.734375 -23.21875 C 8.515625 -22.5625 8.40625 -21.6875 8.40625 -20.59375 L 8.40625 0 L 1.40625 0 Z M 1.40625 -29.28125 "/></g></g></g><g fill="#ffffff" fill-opacity="1"><g transform="translate(133.477748, 187.686096)"><g><path d="M 2.046875 -22.6875 L 0.796875 -22.6875 L 0.84375 -28 L 2.046875 -28 L 2.046875 -30 C 2.046875 -33.144531 3.617188 -34.71875 6.765625 -34.71875 C 8.253906 -34.71875 9.453125 -34.53125 10.359375 -34.15625 L 10.359375 -29.84375 C 10.085938 -29.914062 9.875 -29.953125 9.71875 -29.953125 C 9.34375 -29.953125 9.101562 -29.816406 9 -29.546875 C 8.894531 -29.285156 8.84375 -28.890625 8.84375 -28.359375 L 8.84375 -28 L 10.359375 -28 L 10.359375 -22.59375 L 9 -22.59375 L 9 0 L 2.046875 0 Z M 2.046875 -22.6875 "/></g></g></g><g fill="#ffffff" fill-opacity="1"><g transform="translate(144.676637, 187.686096)"><g><path d="M 1.359375 -31.234375 L 1.359375 -36.125 L 8.359375 -36.125 L 8.359375 -31.234375 Z M 1.359375 0 L 1.359375 -29.28125 L 8.359375 -29.28125 L 8.359375 0 Z M 1.359375 0 "/></g></g></g><g fill="#ffffff" fill-opacity="1"><g transform="translate(154.395669, 187.686096)"><g><path d="M 6.71875 0.3125 C 4.445312 0.3125 2.890625 -0.4375 2.046875 -1.9375 C 1.210938 -3.445312 0.796875 -5.601562 0.796875 -8.40625 C 0.796875 -10.695312 1.09375 -12.453125 1.6875 -13.671875 C 2.289062 -14.898438 3.125 -15.800781 4.1875 -16.375 C 5.257812 -16.945312 6.890625 -17.582031 9.078125 -18.28125 L 11 -18.921875 L 11 -21.921875 C 11 -22.691406 10.84375 -23.28125 10.53125 -23.6875 C 10.226562 -24.101562 9.863281 -24.3125 9.4375 -24.3125 C 9.0625 -24.3125 8.734375 -24.140625 8.453125 -23.796875 C 8.179688 -23.453125 8.046875 -22.988281 8.046875 -22.40625 L 8.046875 -20.640625 L 1.234375 -20.640625 L 1.234375 -21.59375 C 1.234375 -24.476562 1.90625 -26.53125 3.25 -27.75 C 4.601562 -28.976562 6.800781 -29.59375 9.84375 -29.59375 C 12.269531 -29.59375 14.242188 -28.957031 15.765625 -27.6875 C 17.285156 -26.425781 18.046875 -24.632812 18.046875 -22.3125 L 18.046875 0 L 11.078125 0 L 11.078125 -3.484375 C 10.734375 -2.285156 10.179688 -1.351562 9.421875 -0.6875 C 8.660156 -0.0195312 7.757812 0.3125 6.71875 0.3125 Z M 9.484375 -5.125 C 10.015625 -5.125 10.390625 -5.34375 10.609375 -5.78125 C 10.835938 -6.21875 10.953125 -6.757812 10.953125 -7.40625 L 10.953125 -15.5625 C 9.921875 -15.15625 9.15625 -14.644531 8.65625 -14.03125 C 8.164062 -13.425781 7.921875 -12.578125 7.921875 -11.484375 L 7.921875 -7.71875 C 7.921875 -5.988281 8.441406 -5.125 9.484375 -5.125 Z M 9.484375 -5.125 "/></g></g></g><g fill="#ffffff" fill-opacity="1"><g transform="translate(173.713752, 187.686096)"><g/></g></g><g fill="#ffffff" fill-opacity="1"><g transform="translate(183.072822, 187.686096)"><g><path d="M 1.40625 -29.28125 L 8.40625 -29.28125 L 8.40625 -25.5625 C 8.695312 -26.757812 9.203125 -27.726562 9.921875 -28.46875 C 10.640625 -29.21875 11.597656 -29.59375 12.796875 -29.59375 C 14.773438 -29.59375 16.234375 -28.984375 17.171875 -27.765625 C 18.117188 -26.554688 18.59375 -24.832031 18.59375 -22.59375 L 18.59375 0 L 11.71875 0 L 11.71875 -21.875 C 11.71875 -22.519531 11.585938 -23.066406 11.328125 -23.515625 C 11.078125 -23.972656 10.6875 -24.203125 10.15625 -24.203125 C 9.4375 -24.203125 8.960938 -23.875 8.734375 -23.21875 C 8.515625 -22.5625 8.40625 -21.6875 8.40625 -20.59375 L 8.40625 0 L 1.40625 0 Z M 1.40625 -29.28125 "/></g></g></g><g fill="#ffffff" fill-opacity="1"><g transform="translate(203.030836, 187.686096)"><g><path d="M 6.71875 0.3125 C 4.445312 0.3125 2.890625 -0.4375 2.046875 -1.9375 C 1.210938 -3.445312 0.796875 -5.601562 0.796875 -8.40625 C 0.796875 -10.695312 1.09375 -12.453125 1.6875 -13.671875 C 2.289062 -14.898438 3.125 -15.800781 4.1875 -16.375 C 5.257812 -16.945312 6.890625 -17.582031 9.078125 -18.28125 L 11 -18.921875 L 11 -21.921875 C 11 -22.691406 10.84375 -23.28125 10.53125 -23.6875 C 10.226562 -24.101562 9.863281 -24.3125 9.4375 -24.3125 C 9.0625 -24.3125 8.734375 -24.140625 8.453125 -23.796875 C 8.179688 -23.453125 8.046875 -22.988281 8.046875 -22.40625 L 8.046875 -20.640625 L 1.234375 -20.640625 L 1.234375 -21.59375 C 1.234375 -24.476562 1.90625 -26.53125 3.25 -27.75 C 4.601562 -28.976562 6.800781 -29.59375 9.84375 -29.59375 C 12.269531 -29.59375 14.242188 -28.957031 15.765625 -27.6875 C 17.285156 -26.425781 18.046875 -24.632812 18.046875 -22.3125 L 18.046875 0 L 11.078125 0 L 11.078125 -3.484375 C 10.734375 -2.285156 10.179688 -1.351562 9.421875 -0.6875 C 8.660156 -0.0195312 7.757812 0.3125 6.71875 0.3125 Z M 9.484375 -5.125 C 10.015625 -5.125 10.390625 -5.34375 10.609375 -5.78125 C 10.835938 -6.21875 10.953125 -6.757812 10.953125 -7.40625 L 10.953125 -15.5625 C 9.921875 -15.15625 9.15625 -14.644531 8.65625 -14.03125 C 8.164062 -13.425781 7.921875 -12.578125 7.921875 -11.484375 L 7.921875 -7.71875 C 7.921875 -5.988281 8.441406 -5.125 9.484375 -5.125 Z M 9.484375 -5.125 "/></g></g></g><g fill="#ffffff" fill-opacity="1"><g transform="translate(222.348919, 187.686096)"><g/></g></g><g fill="#ffffff" fill-opacity="1"><g transform="translate(231.707988, 187.686096)"><g><path d="M 7.15625 0.3125 C 5.445312 0.3125 4.160156 -0.09375 3.296875 -0.90625 C 2.429688 -1.71875 1.859375 -2.796875 1.578125 -4.140625 C 1.296875 -5.484375 1.15625 -7.207031 1.15625 -9.3125 L 1.234375 -22.515625 C 1.234375 -24.597656 1.757812 -26.296875 2.8125 -27.609375 C 3.875 -28.929688 5.363281 -29.59375 7.28125 -29.59375 C 9.175781 -29.59375 10.585938 -28.96875 11.515625 -27.71875 L 11.515625 -34.5625 L 18.515625 -34.5625 L 18.515625 0 L 11.515625 0 L 11.515625 -3.125 C 11.117188 -1.976562 10.578125 -1.117188 9.890625 -0.546875 C 9.210938 0.0234375 8.300781 0.3125 7.15625 0.3125 Z M 9.84375 -5.15625 C 10.53125 -5.15625 10.976562 -5.492188 11.1875 -6.171875 C 11.40625 -6.859375 11.515625 -7.773438 11.515625 -8.921875 L 11.515625 -21.15625 C 11.515625 -22.007812 11.394531 -22.726562 11.15625 -23.3125 C 10.914062 -23.90625 10.488281 -24.203125 9.875 -24.203125 C 9.1875 -24.203125 8.726562 -23.925781 8.5 -23.375 C 8.269531 -22.832031 8.15625 -22.09375 8.15625 -21.15625 L 8.15625 -8.84375 C 8.15625 -6.382812 8.71875 -5.15625 9.84375 -5.15625 Z M 9.84375 -5.15625 "/></g></g></g><g fill="#ffffff" fill-opacity="1"><g transform="translate(251.626005, 187.686096)"><g><path d="M 1.359375 -31.234375 L 1.359375 -36.125 L 8.359375 -36.125 L 8.359375 -31.234375 Z M 1.359375 0 L 1.359375 -29.28125 L 8.359375 -29.28125 L 8.359375 0 Z M 1.359375 0 "/></g></g></g><g fill="#ffffff" fill-opacity="1"><g transform="translate(261.345037, 187.686096)"><g><path d="M 10.203125 0.3125 C 7.003906 0.3125 4.695312 -0.5 3.28125 -2.125 C 1.863281 -3.75 1.15625 -6.238281 1.15625 -9.59375 L 1.15625 -18.640625 C 1.15625 -21.171875 1.425781 -23.226562 1.96875 -24.8125 C 2.519531 -26.40625 3.441406 -27.597656 4.734375 -28.390625 C 6.035156 -29.191406 7.832031 -29.59375 10.125 -29.59375 C 12.625 -29.59375 14.660156 -28.941406 16.234375 -27.640625 C 17.804688 -26.335938 18.59375 -24.507812 18.59375 -22.15625 L 18.59375 -17.6875 L 11.484375 -17.6875 L 11.484375 -21.796875 C 11.484375 -22.566406 11.375 -23.160156 11.15625 -23.578125 C 10.945312 -23.992188 10.535156 -24.203125 9.921875 -24.203125 C 8.773438 -24.203125 8.203125 -23.390625 8.203125 -21.765625 L 8.203125 -7.5625 C 8.203125 -6.894531 8.34375 -6.328125 8.625 -5.859375 C 8.90625 -5.390625 9.320312 -5.15625 9.875 -5.15625 C 10.4375 -5.15625 10.859375 -5.378906 11.140625 -5.828125 C 11.421875 -6.285156 11.546875 -6.875 11.515625 -7.59375 L 11.484375 -12.515625 L 18.59375 -12.515625 L 18.59375 -7.40625 C 18.59375 -5 17.8125 -3.109375 16.25 -1.734375 C 14.695312 -0.367188 12.679688 0.3125 10.203125 0.3125 Z M 10.203125 0.3125 "/></g></g></g><g fill="#ffffff" fill-opacity="1"><g transform="translate(280.983086, 187.686096)"><g><path d="M 6.71875 0.3125 C 4.445312 0.3125 2.890625 -0.4375 2.046875 -1.9375 C 1.210938 -3.445312 0.796875 -5.601562 0.796875 -8.40625 C 0.796875 -10.695312 1.09375 -12.453125 1.6875 -13.671875 C 2.289062 -14.898438 3.125 -15.800781 4.1875 -16.375 C 5.257812 -16.945312 6.890625 -17.582031 9.078125 -18.28125 L 11 -18.921875 L 11 -21.921875 C 11 -22.691406 10.84375 -23.28125 10.53125 -23.6875 C 10.226562 -24.101562 9.863281 -24.3125 9.4375 -24.3125 C 9.0625 -24.3125 8.734375 -24.140625 8.453125 -23.796875 C 8.179688 -23.453125 8.046875 -22.988281 8.046875 -22.40625 L 8.046875 -20.640625 L 1.234375 -20.640625 L 1.234375 -21.59375 C 1.234375 -24.476562 1.90625 -26.53125 3.25 -27.75 C 4.601562 -28.976562 6.800781 -29.59375 9.84375 -29.59375 C 12.269531 -29.59375 14.242188 -28.957031 15.765625 -27.6875 C 17.285156 -26.425781 18.046875 -24.632812 18.046875 -22.3125 L 18.046875 0 L 11.078125 0 L 11.078125 -3.484375 C 10.734375 -2.285156 10.179688 -1.351562 9.421875 -0.6875 C 8.660156 -0.0195312 7.757812 0.3125 6.71875 0.3125 Z M 9.484375 -5.125 C 10.015625 -5.125 10.390625 -5.34375 10.609375 -5.78125 C 10.835938 -6.21875 10.953125 -6.757812 10.953125 -7.40625 L 10.953125 -15.5625 C 9.921875 -15.15625 9.15625 -14.644531 8.65625 -14.03125 C 8.164062 -13.425781 7.921875 -12.578125 7.921875 -11.484375 L 7.921875 -7.71875 C 7.921875 -5.988281 8.441406 -5.125 9.484375 -5.125 Z M 9.484375 -5.125 "/></g></g></g><path stroke-linecap="butt" transform="matrix(0.75, -0.000000000000000186, 0.000000000000000186, 0.75, 37.500002, 194.186106)" fill="none" stroke-linejoin="miter" d="M -0.00000271667 2.001858 L 241.60418 2.001858 " stroke="#ffffff" stroke-width="4" stroke-opacity="1" stroke-miterlimit="4"/><g clip-path="url(#d39f724959)"><g clip-path="url(#44593736ab)"><g clip-path="url(#607e5661a1)"><path fill="#ffffff" d="M 311.78125 182.324219 L 301.484375 180.914062 L 302.816406 131.78125 L 307.074219 129.667969 L 309.257812 170.234375 L 314.296875 180.140625 Z M 311.78125 182.324219 " fill-opacity="1" fill-rule="nonzero"/></g></g></g><g clip-path="url(#ae0c276075)"><g clip-path="url(#0bcbdeabc1)"><g clip-path="url(#494c2fc476)"><path fill="#fffbfb" d="M 314.296875 180.140625 L 304.152344 178.753906 L 307.074219 129.667969 L 326.136719 132.273438 Z M 314.296875 180.140625 " fill-opacity="1" fill-rule="nonzero"/></g></g></g><g clip-path="url(#51bd4165d5)"><g clip-path="url(#08ff3840d6)"><g clip-path="url(#8fa48de9e0)"><path fill="#ffffff" d="M 300.539062 199.25 C 298.789062 197.632812 297.871094 195.230469 298.1875 192.914062 C 298.746094 188.078125 304.097656 186.378906 308.253906 186.945312 C 312.40625 187.511719 313.402344 191.730469 312.929688 195.4375 C 312.761719 196.761719 312.921875 197.324219 311.148438 199 C 309.375 200.675781 306.617188 201.40625 305.011719 201.1875 C 303.453125 200.976562 301.585938 200.21875 300.535156 199.25 " fill-opacity="1" fill-rule="nonzero"/></g></g></g><g clip-path="url(#ef4c172ff4)"><g clip-path="url(#4811bd09e8)"><g clip-path="url(#5b4547286f)"><path fill="#fffbfb" d="M 313.742188 194.527344 C 313.679688 194.96875 313.578125 195.398438 313.433594 195.820312 C 313.289062 196.238281 313.105469 196.640625 312.882812 197.023438 C 312.660156 197.410156 312.402344 197.769531 312.109375 198.101562 C 311.816406 198.433594 311.496094 198.734375 311.144531 199.003906 C 310.792969 199.273438 310.417969 199.507812 310.019531 199.699219 C 309.625 199.894531 309.210938 200.050781 308.785156 200.164062 C 308.359375 200.277344 307.925781 200.347656 307.484375 200.375 C 307.042969 200.402344 306.605469 200.386719 306.167969 200.328125 C 305.730469 200.265625 305.304688 200.164062 304.886719 200.019531 C 304.46875 199.875 304.070312 199.691406 303.691406 199.46875 C 303.308594 199.246094 302.953125 198.984375 302.625 198.691406 C 302.292969 198.394531 301.996094 198.074219 301.726562 197.71875 C 301.460938 197.363281 301.230469 196.988281 301.039062 196.589844 C 300.847656 196.191406 300.695312 195.773438 300.582031 195.34375 C 300.472656 194.914062 300.402344 194.480469 300.375 194.035156 C 300.347656 193.589844 300.367188 193.148438 300.425781 192.707031 C 300.488281 192.269531 300.589844 191.835938 300.734375 191.417969 C 300.878906 190.996094 301.0625 190.59375 301.285156 190.210938 C 301.507812 189.828125 301.765625 189.46875 302.058594 189.132812 C 302.351562 188.800781 302.671875 188.5 303.023438 188.230469 C 303.375 187.960938 303.75 187.730469 304.148438 187.535156 C 304.542969 187.339844 304.957031 187.183594 305.382812 187.070312 C 305.808594 186.957031 306.242188 186.886719 306.683594 186.859375 C 307.125 186.832031 307.5625 186.847656 308 186.910156 C 308.4375 186.96875 308.863281 187.070312 309.28125 187.214844 C 309.699219 187.359375 310.097656 187.542969 310.476562 187.765625 C 310.859375 187.992188 311.214844 188.25 311.542969 188.542969 C 311.875 188.839844 312.171875 189.164062 312.4375 189.515625 C 312.707031 189.871094 312.933594 190.246094 313.128906 190.648438 C 313.320312 191.046875 313.472656 191.460938 313.585938 191.890625 C 313.695312 192.320312 313.765625 192.757812 313.792969 193.199219 C 313.816406 193.644531 313.800781 194.085938 313.742188 194.527344 Z M 313.742188 194.527344 " fill-opacity="1" fill-rule="nonzero"/></g></g></g></svg>